<mxfile host="65bd71144e">
    <diagram id="9NaRCSfCMusq-ZNxLPtp" name="Page-1">
        <mxGraphModel dx="1555" dy="1495" grid="1" gridSize="10" guides="1" tooltips="1" connect="1" arrows="1" fold="1" page="0" pageScale="1" pageWidth="827" pageHeight="1169" math="0" shadow="0">
            <root>
                <mxCell id="0"/>
                <mxCell id="1" parent="0"/>
                <mxCell id="13" style="edgeStyle=none;html=1;entryX=0;entryY=0.5;entryDx=0;entryDy=0;" edge="1" parent="1" source="14" target="11">
                    <mxGeometry relative="1" as="geometry">
                        <mxPoint x="-202" y="-265" as="sourcePoint"/>
                    </mxGeometry>
                </mxCell>
                <mxCell id="7" style="edgeStyle=none;html=1;entryX=0;entryY=0.5;entryDx=0;entryDy=0;" edge="1" parent="1" source="6" target="14">
                    <mxGeometry relative="1" as="geometry">
                        <mxPoint x="-230" y="-265" as="targetPoint"/>
                    </mxGeometry>
                </mxCell>
                <mxCell id="6" value="" style="points=[];aspect=fixed;html=1;align=center;shadow=0;dashed=0;image;image=img/lib/allied_telesis/computer_and_terminals/Personal_Computer_with_Server.svg;" vertex="1" parent="1">
                    <mxGeometry x="-390" y="-296.2" width="62.400000000000006" height="62.400000000000006" as="geometry"/>
                </mxCell>
                <mxCell id="35" style="edgeStyle=none;html=1;entryX=1;entryY=0.5;entryDx=0;entryDy=0;exitX=0.45;exitY=0.05;exitDx=0;exitDy=0;exitPerimeter=0;" edge="1" parent="1" source="10" target="22">
                    <mxGeometry relative="1" as="geometry">
                        <Array as="points">
                            <mxPoint x="-220" y="-390"/>
                            <mxPoint x="10" y="-390"/>
                            <mxPoint x="10" y="90"/>
                        </Array>
                    </mxGeometry>
                </mxCell>
                <mxCell id="10" value="Web-client/-server" style="text;html=1;align=center;verticalAlign=middle;resizable=0;points=[];autosize=1;strokeColor=none;fillColor=none;" vertex="1" parent="1">
                    <mxGeometry x="-276" y="-320" width="120" height="30" as="geometry"/>
                </mxCell>
                <mxCell id="11" value="" style="aspect=fixed;perimeter=ellipsePerimeter;html=1;align=center;shadow=0;dashed=0;spacingTop=3;image;image=img/lib/active_directory/database_server.svg;" vertex="1" parent="1">
                    <mxGeometry x="-80" y="-290" width="41" height="50" as="geometry"/>
                </mxCell>
                <mxCell id="12" value="DB" style="text;html=1;align=center;verticalAlign=middle;resizable=0;points=[];autosize=1;strokeColor=none;fillColor=none;" vertex="1" parent="1">
                    <mxGeometry x="-79.5" y="-320" width="40" height="30" as="geometry"/>
                </mxCell>
                <mxCell id="14" value="" style="aspect=fixed;perimeter=ellipsePerimeter;html=1;align=center;shadow=0;dashed=0;spacingTop=3;image;image=img/lib/active_directory/web_server.svg;" vertex="1" parent="1">
                    <mxGeometry x="-236" y="-290" width="40" height="50" as="geometry"/>
                </mxCell>
                <mxCell id="18" value="Trond" style="text;html=1;align=center;verticalAlign=middle;resizable=0;points=[];autosize=1;strokeColor=none;fillColor=none;" vertex="1" parent="1">
                    <mxGeometry x="-383.8" y="-326.2" width="50" height="30" as="geometry"/>
                </mxCell>
                <mxCell id="19" value="" style="group" vertex="1" connectable="0" parent="1">
                    <mxGeometry x="-457.6" y="15.2" width="130" height="149.6" as="geometry"/>
                </mxCell>
                <mxCell id="16" value="" style="points=[];aspect=fixed;html=1;align=center;shadow=0;dashed=0;image;image=img/lib/allied_telesis/storage/Datacenter_Server_Half_Rack_ToR.svg;movable=1;resizable=1;rotatable=1;deletable=1;editable=1;connectable=1;" vertex="1" parent="19">
                    <mxGeometry x="20.899999999999977" y="30" width="88.2" height="114.6" as="geometry"/>
                </mxCell>
                <mxCell id="17" value="Student webservers" style="text;html=1;align=center;verticalAlign=middle;resizable=1;points=[];autosize=1;strokeColor=none;fillColor=none;movable=1;rotatable=1;deletable=1;editable=1;connectable=1;" vertex="1" parent="19">
                    <mxGeometry width="130" height="30" as="geometry"/>
                </mxCell>
                <mxCell id="28" style="edgeStyle=none;html=1;entryX=1;entryY=0.5;entryDx=0;entryDy=0;" edge="1" parent="1" source="20" target="26">
                    <mxGeometry relative="1" as="geometry"/>
                </mxCell>
                <mxCell id="31" style="edgeStyle=none;html=1;entryX=-0.029;entryY=0.658;entryDx=0;entryDy=0;entryPerimeter=0;" edge="1" parent="1" source="20" target="30">
                    <mxGeometry relative="1" as="geometry"/>
                </mxCell>
                <mxCell id="20" value="" style="sketch=0;points=[[0,0,0],[0.25,0,0],[0.5,0,0],[0.75,0,0],[1,0,0],[0,1,0],[0.25,1,0],[0.5,1,0],[0.75,1,0],[1,1,0],[0,0.25,0],[0,0.5,0],[0,0.75,0],[1,0.25,0],[1,0.5,0],[1,0.75,0]];outlineConnect=0;fontColor=#232F3E;gradientColor=#945DF2;gradientDirection=north;fillColor=#5A30B5;strokeColor=#ffffff;dashed=0;verticalLabelPosition=bottom;verticalAlign=top;align=center;html=1;fontSize=12;fontStyle=0;aspect=fixed;shape=mxgraph.aws4.resourceIcon;resIcon=mxgraph.aws4.managed_streaming_for_kafka;" vertex="1" parent="1">
                    <mxGeometry x="-239" y="-130" width="78" height="78" as="geometry"/>
                </mxCell>
                <mxCell id="22" value="" style="aspect=fixed;perimeter=ellipsePerimeter;html=1;align=center;shadow=0;dashed=0;fontColor=#4277BB;labelBackgroundColor=#ffffff;fontSize=12;spacingTop=3;image;image=img/lib/ibm/applications/microservice.svg;" vertex="1" parent="1">
                    <mxGeometry x="-236" y="60" width="82.2" height="60" as="geometry"/>
                </mxCell>
                <mxCell id="24" style="edgeStyle=none;html=1;" edge="1" parent="1" source="23">
                    <mxGeometry relative="1" as="geometry">
                        <mxPoint x="-200" y="-50" as="targetPoint"/>
                    </mxGeometry>
                </mxCell>
                <mxCell id="23" value="Git Cron?" style="text;html=1;align=center;verticalAlign=middle;resizable=0;points=[];autosize=1;strokeColor=none;fillColor=none;" vertex="1" parent="1">
                    <mxGeometry x="-235" y="25" width="70" height="30" as="geometry"/>
                </mxCell>
                <mxCell id="27" style="edgeStyle=none;html=1;entryX=0;entryY=0.5;entryDx=0;entryDy=0;entryPerimeter=0;" edge="1" parent="1" source="26" target="20">
                    <mxGeometry relative="1" as="geometry"/>
                </mxCell>
                <mxCell id="42" style="edgeStyle=none;html=1;entryX=0.512;entryY=0.018;entryDx=0;entryDy=0;entryPerimeter=0;" edge="1" parent="1" source="26" target="41">
                    <mxGeometry relative="1" as="geometry"/>
                </mxCell>
                <mxCell id="43" style="edgeStyle=none;html=1;" edge="1" parent="1" source="26" target="17">
                    <mxGeometry relative="1" as="geometry"/>
                </mxCell>
                <mxCell id="26" value="" style="aspect=fixed;perimeter=ellipsePerimeter;html=1;align=center;shadow=0;dashed=0;fontColor=#4277BB;labelBackgroundColor=#ffffff;fontSize=12;spacingTop=3;image;image=img/lib/ibm/applications/microservice.svg;" vertex="1" parent="1">
                    <mxGeometry x="-409.79999999999995" y="-140" width="82.2" height="60" as="geometry"/>
                </mxCell>
                <mxCell id="29" value="div analyser" style="text;html=1;align=center;verticalAlign=middle;resizable=0;points=[];autosize=1;strokeColor=none;fillColor=none;" vertex="1" parent="1">
                    <mxGeometry x="-403.8" y="-180" width="90" height="30" as="geometry"/>
                </mxCell>
                <mxCell id="30" value="" style="aspect=fixed;perimeter=ellipsePerimeter;html=1;align=center;shadow=0;dashed=0;fontColor=#4277BB;labelBackgroundColor=#ffffff;fontSize=12;spacingTop=3;image;image=img/lib/ibm/applications/microservice.svg;" vertex="1" parent="1">
                    <mxGeometry x="-100.6" y="-150" width="82.2" height="60" as="geometry"/>
                </mxCell>
                <mxCell id="34" style="edgeStyle=none;html=1;entryX=0.5;entryY=1;entryDx=0;entryDy=0;" edge="1" parent="1" source="33" target="11">
                    <mxGeometry relative="1" as="geometry"/>
                </mxCell>
                <mxCell id="33" value="Db handler" style="text;html=1;align=center;verticalAlign=middle;resizable=0;points=[];autosize=1;strokeColor=none;fillColor=none;" vertex="1" parent="1">
                    <mxGeometry x="-100" y="-185" width="80" height="30" as="geometry"/>
                </mxCell>
                <mxCell id="36" value="? init by Trond, schedule&amp;nbsp;&lt;br&gt;or dynamic" style="text;html=1;align=center;verticalAlign=middle;resizable=0;points=[];autosize=1;strokeColor=none;fillColor=none;" vertex="1" parent="1">
                    <mxGeometry x="-270" y="125" width="160" height="40" as="geometry"/>
                </mxCell>
                <mxCell id="39" value="" style="group" vertex="1" connectable="0" parent="1">
                    <mxGeometry x="-610" y="15.4" width="130" height="149.6" as="geometry"/>
                </mxCell>
                <mxCell id="40" value="" style="points=[];aspect=fixed;html=1;align=center;shadow=0;dashed=0;image;image=img/lib/allied_telesis/storage/Datacenter_Server_Half_Rack_ToR.svg;movable=1;resizable=1;rotatable=1;deletable=1;editable=1;connectable=1;" vertex="1" parent="39">
                    <mxGeometry x="20.899999999999977" y="30" width="88.2" height="114.6" as="geometry"/>
                </mxCell>
                <mxCell id="41" value="Github repos" style="text;html=1;align=center;verticalAlign=middle;resizable=1;points=[];autosize=1;strokeColor=none;fillColor=none;movable=1;rotatable=1;deletable=1;editable=1;connectable=1;" vertex="1" parent="39">
                    <mxGeometry x="20" width="90" height="30" as="geometry"/>
                </mxCell>
            </root>
        </mxGraphModel>
    </diagram>
    <diagram id="JyGn0qOt5qbCKhGk940j" name="Page-2">
        <mxGraphModel dx="2570" dy="1587" grid="1" gridSize="10" guides="1" tooltips="1" connect="1" arrows="1" fold="1" page="0" pageScale="1" pageWidth="827" pageHeight="1169" math="0" shadow="0">
            <root>
                <mxCell id="0"/>
                <mxCell id="1" parent="0"/>
                <mxCell id="YUHlRzg9NQgyFEg4ebZi-1" style="edgeStyle=none;html=1;entryX=0;entryY=0.5;entryDx=0;entryDy=0;" edge="1" parent="1" source="YUHlRzg9NQgyFEg4ebZi-8" target="YUHlRzg9NQgyFEg4ebZi-6">
                    <mxGeometry relative="1" as="geometry">
                        <mxPoint x="-202" y="-265" as="sourcePoint"/>
                    </mxGeometry>
                </mxCell>
                <mxCell id="YUHlRzg9NQgyFEg4ebZi-2" style="edgeStyle=none;html=1;entryX=0;entryY=0.5;entryDx=0;entryDy=0;" edge="1" parent="1" source="YUHlRzg9NQgyFEg4ebZi-3" target="YUHlRzg9NQgyFEg4ebZi-8">
                    <mxGeometry relative="1" as="geometry">
                        <mxPoint x="-230" y="-265" as="targetPoint"/>
                    </mxGeometry>
                </mxCell>
                <mxCell id="YUHlRzg9NQgyFEg4ebZi-3" value="" style="points=[];aspect=fixed;html=1;align=center;shadow=0;dashed=0;image;image=img/lib/allied_telesis/computer_and_terminals/Personal_Computer_with_Server.svg;" vertex="1" parent="1">
                    <mxGeometry x="-390" y="-296.2" width="62.400000000000006" height="62.400000000000006" as="geometry"/>
                </mxCell>
                <mxCell id="YUHlRzg9NQgyFEg4ebZi-4" style="edgeStyle=none;html=1;entryX=1;entryY=0.5;entryDx=0;entryDy=0;exitX=0.45;exitY=0.05;exitDx=0;exitDy=0;exitPerimeter=0;" edge="1" parent="1" source="YUHlRzg9NQgyFEg4ebZi-5" target="YUHlRzg9NQgyFEg4ebZi-16">
                    <mxGeometry relative="1" as="geometry">
                        <Array as="points">
                            <mxPoint x="-220" y="-390"/>
                            <mxPoint x="10" y="-390"/>
                            <mxPoint x="10" y="90"/>
                        </Array>
                    </mxGeometry>
                </mxCell>
                <mxCell id="YUHlRzg9NQgyFEg4ebZi-5" value="Web-client/-server" style="text;html=1;align=center;verticalAlign=middle;resizable=0;points=[];autosize=1;strokeColor=none;fillColor=none;" vertex="1" parent="1">
                    <mxGeometry x="-276" y="-320" width="120" height="30" as="geometry"/>
                </mxCell>
                <mxCell id="YUHlRzg9NQgyFEg4ebZi-6" value="" style="aspect=fixed;perimeter=ellipsePerimeter;html=1;align=center;shadow=0;dashed=0;spacingTop=3;image;image=img/lib/active_directory/database_server.svg;" vertex="1" parent="1">
                    <mxGeometry x="-80" y="-290" width="41" height="50" as="geometry"/>
                </mxCell>
                <mxCell id="YUHlRzg9NQgyFEg4ebZi-7" value="DB" style="text;html=1;align=center;verticalAlign=middle;resizable=0;points=[];autosize=1;strokeColor=none;fillColor=none;" vertex="1" parent="1">
                    <mxGeometry x="-79.5" y="-320" width="40" height="30" as="geometry"/>
                </mxCell>
                <mxCell id="YUHlRzg9NQgyFEg4ebZi-8" value="" style="aspect=fixed;perimeter=ellipsePerimeter;html=1;align=center;shadow=0;dashed=0;spacingTop=3;image;image=img/lib/active_directory/web_server.svg;" vertex="1" parent="1">
                    <mxGeometry x="-236" y="-290" width="40" height="50" as="geometry"/>
                </mxCell>
                <mxCell id="YUHlRzg9NQgyFEg4ebZi-9" value="Trond" style="text;html=1;align=center;verticalAlign=middle;resizable=0;points=[];autosize=1;strokeColor=none;fillColor=none;" vertex="1" parent="1">
                    <mxGeometry x="-383.8" y="-326.2" width="50" height="30" as="geometry"/>
                </mxCell>
                <mxCell id="YUHlRzg9NQgyFEg4ebZi-10" value="" style="group" vertex="1" connectable="0" parent="1">
                    <mxGeometry x="-457.6" y="15.2" width="130" height="149.6" as="geometry"/>
                </mxCell>
                <mxCell id="YUHlRzg9NQgyFEg4ebZi-11" value="" style="points=[];aspect=fixed;html=1;align=center;shadow=0;dashed=0;image;image=img/lib/allied_telesis/storage/Datacenter_Server_Half_Rack_ToR.svg;movable=1;resizable=1;rotatable=1;deletable=1;editable=1;connectable=1;" vertex="1" parent="YUHlRzg9NQgyFEg4ebZi-10">
                    <mxGeometry x="20.899999999999977" y="30" width="88.2" height="114.6" as="geometry"/>
                </mxCell>
                <mxCell id="YUHlRzg9NQgyFEg4ebZi-12" value="Student webservers" style="text;html=1;align=center;verticalAlign=middle;resizable=1;points=[];autosize=1;strokeColor=none;fillColor=none;movable=1;rotatable=1;deletable=1;editable=1;connectable=1;" vertex="1" parent="YUHlRzg9NQgyFEg4ebZi-10">
                    <mxGeometry width="130" height="30" as="geometry"/>
                </mxCell>
                <mxCell id="YUHlRzg9NQgyFEg4ebZi-13" style="edgeStyle=none;html=1;entryX=0.75;entryY=1;entryDx=0;entryDy=0;" edge="1" parent="1" source="YUHlRzg9NQgyFEg4ebZi-15" target="YUHlRzg9NQgyFEg4ebZi-22">
                    <mxGeometry relative="1" as="geometry"/>
                </mxCell>
                <mxCell id="YUHlRzg9NQgyFEg4ebZi-15" value="" style="sketch=0;points=[[0,0,0],[0.25,0,0],[0.5,0,0],[0.75,0,0],[1,0,0],[0,1,0],[0.25,1,0],[0.5,1,0],[0.75,1,0],[1,1,0],[0,0.25,0],[0,0.5,0],[0,0.75,0],[1,0.25,0],[1,0.5,0],[1,0.75,0]];outlineConnect=0;fontColor=#232F3E;gradientColor=#945DF2;gradientDirection=north;fillColor=#5A30B5;strokeColor=#ffffff;dashed=0;verticalLabelPosition=bottom;verticalAlign=top;align=center;html=1;fontSize=12;fontStyle=0;aspect=fixed;shape=mxgraph.aws4.resourceIcon;resIcon=mxgraph.aws4.managed_streaming_for_kafka;" vertex="1" parent="1">
                    <mxGeometry x="-243" y="-80" width="78" height="78" as="geometry"/>
                </mxCell>
                <mxCell id="YUHlRzg9NQgyFEg4ebZi-16" value="" style="aspect=fixed;perimeter=ellipsePerimeter;html=1;align=center;shadow=0;dashed=0;fontColor=#4277BB;labelBackgroundColor=#ffffff;fontSize=12;spacingTop=3;image;image=img/lib/ibm/applications/microservice.svg;" vertex="1" parent="1">
                    <mxGeometry x="-236" y="60" width="82.2" height="60" as="geometry"/>
                </mxCell>
                <mxCell id="YUHlRzg9NQgyFEg4ebZi-17" style="edgeStyle=none;html=1;" edge="1" parent="1" source="YUHlRzg9NQgyFEg4ebZi-18">
                    <mxGeometry relative="1" as="geometry">
                        <mxPoint x="-200" as="targetPoint"/>
                    </mxGeometry>
                </mxCell>
                <mxCell id="YUHlRzg9NQgyFEg4ebZi-18" value="Git Cron?" style="text;html=1;align=center;verticalAlign=middle;resizable=0;points=[];autosize=1;strokeColor=none;fillColor=none;" vertex="1" parent="1">
                    <mxGeometry x="-235" y="25" width="70" height="30" as="geometry"/>
                </mxCell>
                <mxCell id="YUHlRzg9NQgyFEg4ebZi-20" style="edgeStyle=none;html=1;entryX=0.512;entryY=0.018;entryDx=0;entryDy=0;entryPerimeter=0;" edge="1" parent="1" source="YUHlRzg9NQgyFEg4ebZi-22" target="YUHlRzg9NQgyFEg4ebZi-30">
                    <mxGeometry relative="1" as="geometry"/>
                </mxCell>
                <mxCell id="YUHlRzg9NQgyFEg4ebZi-21" style="edgeStyle=none;html=1;" edge="1" parent="1" source="YUHlRzg9NQgyFEg4ebZi-22" target="YUHlRzg9NQgyFEg4ebZi-12">
                    <mxGeometry relative="1" as="geometry"/>
                </mxCell>
                <mxCell id="YUHlRzg9NQgyFEg4ebZi-31" style="edgeStyle=none;html=1;entryX=0.25;entryY=1;entryDx=0;entryDy=0;" edge="1" parent="1" source="YUHlRzg9NQgyFEg4ebZi-22" target="YUHlRzg9NQgyFEg4ebZi-6">
                    <mxGeometry relative="1" as="geometry">
                        <Array as="points">
                            <mxPoint x="-70" y="-170"/>
                        </Array>
                    </mxGeometry>
                </mxCell>
                <mxCell id="YUHlRzg9NQgyFEg4ebZi-22" value="" style="aspect=fixed;perimeter=ellipsePerimeter;html=1;align=center;shadow=0;dashed=0;fontColor=#4277BB;labelBackgroundColor=#ffffff;fontSize=12;spacingTop=3;image;image=img/lib/ibm/applications/microservice.svg;" vertex="1" parent="1">
                    <mxGeometry x="-269.99999999999994" y="-195" width="82.2" height="60" as="geometry"/>
                </mxCell>
                <mxCell id="YUHlRzg9NQgyFEg4ebZi-23" value="div analyser" style="text;html=1;align=center;verticalAlign=middle;resizable=0;points=[];autosize=1;strokeColor=none;fillColor=none;" vertex="1" parent="1">
                    <mxGeometry x="-277.8" y="-225" width="90" height="30" as="geometry"/>
                </mxCell>
                <mxCell id="YUHlRzg9NQgyFEg4ebZi-27" value="? init by Trond, schedule&amp;nbsp;&lt;br&gt;or dynamic" style="text;html=1;align=center;verticalAlign=middle;resizable=0;points=[];autosize=1;strokeColor=none;fillColor=none;" vertex="1" parent="1">
                    <mxGeometry x="-270" y="125" width="160" height="40" as="geometry"/>
                </mxCell>
                <mxCell id="YUHlRzg9NQgyFEg4ebZi-28" value="" style="group" vertex="1" connectable="0" parent="1">
                    <mxGeometry x="-610" y="15.4" width="130" height="149.6" as="geometry"/>
                </mxCell>
                <mxCell id="YUHlRzg9NQgyFEg4ebZi-29" value="" style="points=[];aspect=fixed;html=1;align=center;shadow=0;dashed=0;image;image=img/lib/allied_telesis/storage/Datacenter_Server_Half_Rack_ToR.svg;movable=1;resizable=1;rotatable=1;deletable=1;editable=1;connectable=1;" vertex="1" parent="YUHlRzg9NQgyFEg4ebZi-28">
                    <mxGeometry x="20.899999999999977" y="30" width="88.2" height="114.6" as="geometry"/>
                </mxCell>
                <mxCell id="YUHlRzg9NQgyFEg4ebZi-30" value="Github repos" style="text;html=1;align=center;verticalAlign=middle;resizable=1;points=[];autosize=1;strokeColor=none;fillColor=none;movable=1;rotatable=1;deletable=1;editable=1;connectable=1;" vertex="1" parent="YUHlRzg9NQgyFEg4ebZi-28">
                    <mxGeometry x="20" width="90" height="30" as="geometry"/>
                </mxCell>
            </root>
        </mxGraphModel>
    </diagram>
</mxfile>